<svg xmlns="http://www.w3.org/2000/svg" width="180" height="180" viewBox="0 0 180 180">
  <defs>
    <linearGradient id="grad1" x1="0%" y1="0%" x2="100%" y2="0%">
      <stop offset="0%" style="stop-color:#2563eb;stop-opacity:1" />
      <stop offset="100%" style="stop-color:#4f46e5;stop-opacity:1" />
    </linearGradient>
  </defs>
  <rect width="180" height="180" rx="32" fill="url(#grad1)"/>
  <!-- Sparkles icon paths scaled and centered for 180x180 -->
  <g fill="white" transform="translate(32, 32)">
    <!-- Main sparkle -->
    <path d="M58 10L63.5 35.5L89 41L63.5 46.5L58 72L52.5 46.5L27 41L52.5 35.5L58 10Z"/>
    <!-- Small sparkle top right -->
    <path d="M96 15L99 24L108 27L99 30L96 39L93 30L84 27L93 24L96 15Z"/>
    <!-- Small sparkle bottom left -->
    <path d="M24 84L27 93L36 96L27 99L24 108L21 99L12 96L21 93L24 84Z"/>
    <!-- Medium sparkle bottom right -->
    <path d="M96 75L101.25 90.75L117 96L101.25 101.25L96 117L90.75 101.25L75 96L90.75 90.75L96 75Z"/>
  </g>
</svg>