<svg xmlns="http://www.w3.org/2000/svg" width="180" height="180" viewBox="0 0 180 180">
  <defs>
    <linearGradient id="grad1" x1="0%" y1="0%" x2="100%" y2="0%">
      <stop offset="0%" style="stop-color:#2563eb;stop-opacity:1" />
      <stop offset="100%" style="stop-color:#4f46e5;stop-opacity:1" />
    </linearGradient>
  </defs>
  <rect width="180" height="180" rx="36" fill="url(#grad1)"/>
  <!-- Sparkles icon paths scaled and centered for 180x180 -->
  <g fill="white" transform="translate(45, 45) scale(3.75)">
    <!-- Main sparkle -->
    <path d="M12 2L13.09 7.09L18 8L13.09 8.91L12 14L10.91 8.91L6 8L10.91 7.09L12 2Z"/>
    <!-- Small sparkle top right -->
    <path d="M19 3L19.5 4.5L21 5L19.5 5.5L19 7L18.5 5.5L17 5L18.5 4.5L19 3Z"/>
    <!-- Small sparkle bottom left -->
    <path d="M5 17L5.5 18.5L7 19L5.5 19.5L5 21L4.5 19.5L3 19L4.5 18.5L5 17Z"/>
    <!-- Medium sparkle bottom right -->
    <path d="M19 15L19.75 17.25L22 18L19.75 18.75L19 21L18.25 18.75L16 18L18.25 17.25L19 15Z"/>
  </g>
</svg>